#!OML:ASF F:\VICON\USERDATA\INSTALL\rory3\rory3.ASF
:FULLY-SPECIFIED
:DEGREES
1954
root 0.604023 17.5752 -7.69955 5.76769 26.7944 3.62026
lowerback 5.9212 -2.00341 -5.77305
upperback 0.880881 -3.01962 0.310594
thorax -2.09197 -1.4614 3.78136
lowerneck -14.3125 -8.04551 -13.0866
upperneck 9.66043 -10.1105 13.4541
head 6.66791 -4.43411 5.39541
rclavicle 2.38293e-014 -6.95746e-016
rhumerus 25.7395 -22.0268 -38.3575
rradius 74.3992
rwrist 10.7027
rhand -30.6202 -2.27479
rfingers 7.12502
rthumb -3.91634 -32.2185
lclavicle 2.38293e-014 -6.95746e-016
lhumerus 17.1662 21.4331 38.8409
lradius 63.0882
lwrist 2.20866
lhand -19.6403 30.9263
lfingers 7.12502
lthumb 6.68705 60.8007
rfemur -33.5131 -10.6751 21.9841
rtibia 35.1024
rfoot -12.2101 -16.3105
rtoes 21.8359
lfemur 1.87708 -0.443723 -25.6494
ltibia 19.8956
lfoot -18.0953 -9.014
ltoes -10.5672
1955
root 0.63176 17.5831 -7.59583 5.55232 26.7875 3.57456
lowerback 5.6714 -2.10261 -5.78181
upperback 0.710296 -3.14034 0.418523
thorax -2.10966 -1.51769 3.89874
lowerneck -14.0553 -8.06784 -13.2114
upperneck 9.58649 -10.1572 13.569
head 6.62088 -4.46382 5.45401
rclavicle -6.70898e-015 -4.37326e-015
rhumerus 26.2417 -22.5268 -38.7412
rradius 75.3053
rwrist 10.6598
rhand -31.9233 -2.34396
rfingers 7.12502
rthumb -5.17471 -32.2608
lclavicle -6.70898e-015 -4.37326e-015
lhumerus 17.5924 22.8249 39.4097
lradius 64.1501
lwrist 2.74354
lhand -19.8372 30.9421
lfingers 7.12502
lthumb 6.49703 60.8224
rfemur -33.0735 -10.4267 21.892
rtibia 35.4641
rfoot -12.4279 -16.1484
rtoes 20.7727
lfemur 2.54002 -0.494447 -25.5602
ltibia 19.7475
lfoot -17.841 -8.84184
ltoes -10.884
1956
root 0.659745 17.5969 -7.49243 5.39775 26.8809 3.5809
lowerback 5.40152 -2.23536 -5.79188
upperback 0.564402 -3.30482 0.469177
thorax -2.08842 -1.5975 3.9576
lowerneck -13.8749 -8.11008 -13.0933
upperneck 9.50891 -10.2518 13.5614
head 6.57231 -4.51311 5.42399
rclavicle -7.61221e-014 -1.85864e-014
rhumerus 26.8328 -23.0534 -39.4315
rradius 76.1264
rwrist 10.8319
rhand -33.2674 -2.17164
rfingers 7.12502
rthumb -6.47233 -32.0527
lclavicle -7.61221e-014 -1.85864e-014
lhumerus 18.064 24.1724 40.0021
lradius 65.3161
lwrist 3.31279
lhand -20.1545 31.0288
lfingers 7.12502
lthumb 6.19062 60.9184
rfemur -32.6393 -10.2504 21.7663
rtibia 35.7588
rfoot -12.987 -16.1273
rtoes 20.5473
lfemur 3.15936 -0.708485 -25.505
ltibia 19.6033
lfoot -17.4247 -8.77484
ltoes -10.9423
1957
root 0.687538 17.6088 -7.38819 5.21142 27.0745 3.60987
lowerback 5.19053 -2.38355 -5.83852
upperback 0.451534 -3.49396 0.541236
thorax -2.05923 -1.69015 4.06146
lowerneck -13.8029 -8.20106 -12.9826
upperneck 9.49015 -10.3963 13.4988
head 6.56438 -4.58563 5.36773
rclavicle 6.8208e-014 -1.59028e-014
rhumerus 27.4603 -23.6019 -40.1416
rradius 76.9447
rwrist 11.5835
rhand -34.1269 -2.01919
rfingers 7.12502
rthumb -7.30207 -31.8732
lclavicle 6.8208e-014 -1.59028e-014
lhumerus 18.5569 25.4549 40.8415
lradius 66.5462
lwrist 3.92672
lhand -20.5849 30.9799
lfingers 7.12502
lthumb 5.77508 60.8812
rfemur -32.1763 -10.3698 21.7287
rtibia 35.9806
rfoot -13.1643 -16.2086
rtoes 20.7817
lfemur 3.8016 -1.04262 -25.4627
ltibia 19.5336
lfoot -17.033 -8.71353
ltoes -11.5065
1958
root 0.71139 17.6177 -7.28108 4.95428 27.3026 3.51913
lowerback 4.97665 -2.54123 -5.82679
upperback 0.40504 -3.68953 0.634101
thorax -1.96034 -1.79023 4.15101
lowerneck -14.0326 -8.33597 -13.0047
upperneck 9.67883 -10.5844 13.5929
head 6.6965 -4.65854 5.37184
rclavicle 8.69683e-015 -1.19271e-015
rhumerus 28.0288 -24.1694 -40.863
rradius 77.7358
rwrist 12.4787
rhand -35.1149 -1.86367
rfingers 7.12502
rthumb -8.25564 -31.6824
lclavicle 8.69683e-015 -1.19271e-015
lhumerus 19.0823 26.6854 41.7475
lradius 67.8632
lwrist 4.48754
lhand -20.8497 30.8145
lfingers 7.12502
lthumb 5.51949 60.7226
rfemur -31.6097 -10.4845 21.8288
rtibia 36.0813
rfoot -13.3355 -16.2479
rtoes 20.6942
lfemur 4.32073 -1.24803 -25.2523
ltibia 19.6537
lfoot -16.6983 -8.80198
ltoes -12.443
1959
root 0.731423 17.6242 -7.17344 4.81666 27.5013 3.5051
lowerback 4.73783 -2.69734 -5.95907
upperback 0.230097 -3.89313 0.747304
thorax -1.96819 -1.88671 4.34441
lowerneck -13.8362 -8.41997 -13.1843
upperneck 9.75795 -10.7242 13.7745
head 6.7293 -4.72634 5.44815
rclavicle 1.82385e-014 -5.56597e-015
rhumerus 28.3809 -24.4596 -41.4382
rradius 78.4412
rwrist 13.1595
rhand -36.4446 -1.74419
rfingers 7.12502
rthumb -9.5388 -31.5083
lclavicle 1.82385e-014 -5.56597e-015
lhumerus 19.2986 27.6825 42.6164
lradius 69.3231
lwrist 5.01814
lhand -21.2736 30.9458
lfingers 7.12502
lthumb 5.11015 60.8642
rfemur -31.0297 -10.5013 21.8685
rtibia 36.0789
rfoot -13.7698 -16.1303
rtoes 19.9936
lfemur 4.64373 -1.43674 -25.0788
ltibia 19.9292
lfoot -16.2894 -8.96927
ltoes -13.5218
1960
root 0.751892 17.6346 -7.06228 4.67124 27.6649 3.39089
lowerback 4.42543 -2.87409 -6.01951
upperback -0.0140316 -4.1168 0.898625
thorax -2.00456 -1.99103 4.53497
lowerneck -13.3847 -8.464 -13.3669
upperneck 9.85042 -10.8311 13.8882
head 6.71408 -4.79382 5.5141
rclavicle -8.99501e-015 3.97569e-016
rhumerus 28.5621 -24.4903 -41.9921
rradius 79.3208
rwrist 13.643
rhand -37.1603 -1.95507
rfingers 7.12502
rthumb -10.2293 -31.6863
lclavicle -8.99501e-015 3.97569e-016
lhumerus 19.2301 28.4792 43.3675
lradius 70.888
lwrist 5.58701
lhand -21.9057 30.9776
lfingers 7.12502
lthumb 4.49982 60.9098
rfemur -30.385 -10.4564 22.0213
rtibia 35.9939
rfoot -14.4354 -15.9032
rtoes 19.9928
lfemur 4.883 -1.60752 -24.7828
ltibia 20.3312
lfoot -15.768 -9.26042
ltoes -14.0464
1961
root 0.773569 17.6515 -6.94938 4.40341 27.7732 3.27134
lowerback 4.11516 -3.05606 -6.10911
upperback -0.0411263 -4.34162 1.0617
thorax -1.81225 -2.10872 4.74377
lowerneck -13.4152 -8.56885 -13.5615
upperneck 10.0496 -10.9782 14.0316
head 6.82398 -4.85808 5.57344
rclavicle -2.43014e-014 -1.49089e-014
rhumerus 29.0553 -24.6059 -42.907
rradius 80.2396
rwrist 14.1784
rhand -37.2573 -2.07626
rfingers 7.12502
rthumb -10.3229 -31.8029
lclavicle -2.43014e-014 -1.49089e-014
lhumerus 19.2818 29.4246 44.1633
lradius 72.4197
lwrist 6.21472
lhand -22.7656 30.8484
lfingers 7.12502
lthumb 3.66943 60.7966
rfemur -29.5945 -10.3842 22.1478
rtibia 35.8538
rfoot -14.9611 -15.8133
rtoes 20.601
lfemur 5.17692 -1.74757 -24.4945
ltibia 20.8678
lfoot -15.1425 -9.59091
ltoes -14.6321
1962
root 0.794841 17.6718 -6.83996 4.23257 27.8176 3.17495
lowerback 3.73163 -3.18127 -6.21611
upperback -0.0693085 -4.48738 1.19239
thorax -1.58962 -2.18822 4.91894
lowerneck -13.4125 -8.70109 -13.6155
upperneck 10.1426 -11.1737 14.112
head 6.88994 -4.94697 5.58249
rclavicle -8.87077e-015 6.36111e-015
rhumerus 29.3818 -24.7566 -43.8311
rradius 81.1177
rwrist 14.5861
rhand -37.6615 -1.89211
rfingers 7.12502
rthumb -10.7128 -31.599
lclavicle -8.87077e-015 6.36111e-015
lhumerus 19.4554 30.2316 45.1169
lradius 74.0283
lwrist 6.98587
lhand -23.6046 30.9013
lfingers 7.12502
lthumb 2.85926 60.8619
rfemur -28.9309 -10.2398 22.2574
rtibia 35.665
rfoot -15.2794 -15.9138
rtoes 21.2326
lfemur 5.29895 -1.95658 -24.2615
ltibia 21.5011
lfoot -14.4506 -9.82822
ltoes -15.1824
1963
root 0.81408 17.6921 -6.73378 4.02783 27.802 3.03619
lowerback 3.47464 -3.25012 -6.2849
upperback -0.211228 -4.56779 1.30824
thorax -1.56751 -2.22524 5.06803
lowerneck -13.2108 -8.82428 -13.6566
upperneck 10.3126 -11.395 14.2058
head 6.95045 -5.05393 5.59646
rclavicle -1.16786e-014 1.11319e-014
rhumerus 29.2679 -24.7739 -44.5051
rradius 82.1185
rwrist 14.9547
rhand -38.036 -2.08276
rfingers 7.12502
rthumb -11.074 -31.7706
lclavicle -1.16786e-014 1.11319e-014
lhumerus 19.4286 30.7398 46.0628
lradius 75.8035
lwrist 7.81196
lhand -24.0635 30.8199
lfingers 7.12502
lthumb 2.41605 60.7859
rfemur -28.2422 -9.98237 22.382
rtibia 35.4494
rfoot -15.6261 -15.9584
rtoes 21.2822
lfemur 5.37589 -2.0791 -23.9769
ltibia 22.2107
lfoot -13.7905 -10.0986
ltoes -15.8909
1964
root 0.834931 17.7103 -6.62852 3.69703 27.7263 2.85835
lowerback 3.35657 -3.28198 -6.24629
upperback -0.343871 -4.60372 1.3792
thorax -1.63119 -2.23783 5.1185
lowerneck -13.1315 -8.98237 -13.7481
upperneck 10.6825 -11.681 14.41
head 7.11669 -5.17796 5.64388
rclavicle 5.66039e-014 1.27222e-014
rhumerus 29.0398 -24.7268 -45.1879
rradius 83.1092
rwrist 15.243
rhand -38.0893 -2.29514
rfingers 7.12502
rthumb -11.1254 -31.9802
lclavicle 5.66039e-014 1.27222e-014
lhumerus 19.2173 31.0526 46.8546
lradius 77.6384
lwrist 8.58671
lhand -24.3306 30.5123
lfingers 7.12502
lthumb 2.15807 60.4812
rfemur -27.4348 -9.78949 22.5319
rtibia 35.216
rfoot -15.8575 -15.9244
rtoes 20.4168
lfemur 5.49955 -2.10676 -23.648
ltibia 23.0653
lfoot -13.1647 -10.4441
ltoes -16.6314
1965
root 0.855818 17.7262 -6.52434 3.37398 27.5117 2.68289
lowerback 3.23725 -3.2778 -6.23148
upperback -0.502493 -4.59292 1.45823
thorax -1.72483 -2.22498 5.1906
lowerneck -12.8718 -9.10732 -13.8405
upperneck 10.9136 -11.9278 14.6022
head 7.20183 -5.29353 5.69784
rclavicle -1.31819e-014 -9.54166e-015
rhumerus 28.7078 -24.5032 -45.8231
rradius 84.0737
rwrist 15.3635
rhand -38.2854 -2.21702
rfingers 7.12502
rthumb -11.3145 -31.8918
lclavicle -1.31819e-014 -9.54166e-015
lhumerus 18.9386 31.2801 47.7055
lradius 79.4118
lwrist 9.26714
lhand -24.596 30.0262
lfingers 7.12502
lthumb 1.90179 59.9975
rfemur -26.6505 -9.55668 22.692
rtibia 34.9574
rfoot -15.9041 -15.9366
rtoes 19.2453
lfemur 5.55375 -2.05656 -23.3221
ltibia 24.0425
lfoot -12.4054 -10.8196
ltoes -17.1775
1966
root 0.874271 17.74 -6.42054 3.03334 27.2198 2.46214
lowerback 3.05815 -3.28575 -6.24635
upperback -0.617744 -4.59351 1.5865
thorax -1.73213 -2.22173 5.32473
lowerneck -12.6123 -9.23988 -14.0286
upperneck 11.1312 -12.1671 14.7941
head 7.28838 -5.40995 5.76824
rclavicle -1.60394e-014 1.70955e-014
rhumerus 28.3041 -24.1427 -46.4414
rradius 85.1281
rwrist 15.3537
rhand -38.4984 -2.09868
rfingers 7.12502
rthumb -11.52 -31.7621
lclavicle -1.60394e-014 1.70955e-014
lhumerus 18.4591 31.4917 48.4576
lradius 81.2054
lwrist 10.0113
lhand -24.8847 29.4304
lfingers 7.12502
lthumb 1.62296 59.4039
rfemur -25.8633 -9.14297 22.8945
rtibia 34.6972
rfoot -16.0766 -15.9957
rtoes 18.5593
lfemur 5.54158 -2.00624 -22.9224
ltibia 25.1014
lfoot -11.3676 -11.3605
ltoes -16.5097
1967
root 0.891846 17.755 -6.31557 2.58697 26.9745 2.21113
lowerback 2.95567 -3.31195 -6.22248
upperback -0.717998 -4.62138 1.71158
thorax -1.76631 -2.23179 5.43932
lowerneck -12.2851 -9.42413 -14.2384
upperneck 11.3456 -12.4713 14.9074
head 7.36856 -5.56718 5.80815
rclavicle -1.64246e-014 -7.95139e-016
rhumerus 27.8391 -23.6717 -47.0561
rradius 86.2795
rwrist 15.1695
rhand -38.2288 -2.10469
rfingers 7.12502
rthumb -11.2599 -31.7825
lclavicle -1.64246e-014 -7.95139e-016
lhumerus 17.6899 31.5283 49.0532
lradius 83.0948
lwrist 10.7502
lhand -25.2514 28.7561
lfingers 7.12502
lthumb 1.26871 58.7321
rfemur -24.953 -8.74216 23.1164
rtibia 34.4226
rfoot -16.446 -16.0424
rtoes 18.5685
lfemur 5.52878 -1.84682 -22.448
ltibia 26.2763
lfoot -10.269 -11.9776
ltoes -16.2065
